<?xml version="1.0" encoding="UTF-8"?>
<svg width="134px" height="53px" viewBox="0 0 134 53" version="1.1" xmlns="http://www.w3.org/2000/svg" xmlns:xlink="http://www.w3.org/1999/xlink">
    <!-- Generator: Sketch 49.3 (51167) - http://www.bohemiancoding.com/sketch -->
    <title>Group 10</title>
    <desc>Created with Sketch.</desc>
    <defs></defs>
    <g id="Mable-v2" stroke="none" stroke-width="1" fill="none" fill-rule="evenodd">
        <g id="Discover" transform="translate(-1092.000000, -533.000000)" fill="#000000" fill-rule="nonzero">
            <g id="Group-Copy-3" transform="translate(1038.000000, 533.000000)">
                <g id="Group-10" transform="translate(54.000000, 0.000000)">
                    <path d="M109.556313,28.3444056 C108.455314,26.3126416 108.560222,24.1317083 109.871035,21.8016056 L112.428253,14.8863689 L109.393908,16.0058878 L107.233466,23.4355717 C106.807353,24.9009598 105.261292,25.7471115 103.780243,25.3255045 C102.299193,24.9038974 101.443998,23.3741856 101.870111,21.9087975 L104.808315,11.8044149 L115.351101,7.91466267 L123.936342,10.879239 L126.54573,19.872863 L132.340887,22.4178384 C133.7495,23.0364387 134.384572,24.6677446 133.75936,26.0614621 C133.134149,27.4551795 131.485408,28.0835361 130.076795,27.4649358 L121.900337,23.8741985 L120.682334,19.6761794 L117.713953,26.796746 L127.210818,49.0767696 C127.859216,50.4600769 127.25147,52.1015413 125.853378,52.743083 C124.455286,53.3846246 122.796279,52.7833048 122.14788,51.3999976 L113.600319,33.1644413 L104.674357,51.439702 C104.003796,52.8126268 102.335329,53.3877537 100.94773,52.7242838 C99.5601321,52.060814 98.9788584,50.40999 99.6494192,49.0370652 L109.556313,28.3444056 Z M121.802127,7.91473429 C119.593175,7.91473429 117.802465,6.14296067 117.802465,3.95736715 C117.802465,1.77177362 119.593175,0 121.802127,0 C124.01108,0 125.80179,1.77177362 125.80179,3.95736715 C125.80179,6.14296067 124.01108,7.91473429 121.802127,7.91473429 Z" id="Combined-Shape"></path>
                    <path d="M77.9383354,28.3444056 C76.8373367,26.3126416 76.9422441,24.1317083 78.2530578,21.8016056 L80.8102751,14.8863689 L77.7759305,16.0058878 L75.6154888,23.4355717 C75.1893757,24.9009598 73.6433148,25.7471115 72.162265,25.3255045 C70.6812152,24.9038974 69.8260201,23.3741856 70.2521332,21.9087975 L73.1903376,11.8044149 L83.7331236,7.91466267 L92.3183646,10.879239 L94.9277525,19.872863 L100.722909,22.4178384 C102.131522,23.0364387 102.766595,24.6677446 102.141383,26.0614621 C101.516171,27.4551795 99.8674302,28.0835361 98.4588171,27.4649358 L90.282359,23.8741985 L89.0643561,19.6761794 L86.0959753,26.796746 L95.5928405,49.0767696 C96.2412389,50.4600769 95.6334923,52.1015413 94.2354006,52.743083 C92.8373089,53.3846246 91.178301,52.7833048 90.5299027,51.3999976 L81.9823411,33.1644413 L73.0563795,51.439702 C72.3858186,52.8126268 70.7173511,53.3877537 69.3297528,52.7242838 C67.9421545,52.060814 67.3608809,50.40999 68.0314417,49.0370652 L77.9383354,28.3444056 Z M90.1841496,7.91473429 C87.975197,7.91473429 86.1844871,6.14296067 86.1844871,3.95736715 C86.1844871,1.77177362 87.975197,0 90.1841496,0 C92.3931021,0 94.183812,1.77177362 94.183812,3.95736715 C94.183812,6.14296067 92.3931021,7.91473429 90.1841496,7.91473429 Z" id="Combined-Shape-Copy"></path>
                    <path d="M44.8147399,28.3444056 C43.7137412,26.3126416 43.8186486,24.1317083 45.1294623,21.8016056 L47.6866796,14.8863689 L44.652335,16.0058878 L42.4918933,23.4355717 C42.0657802,24.9009598 40.5197193,25.7471115 39.0386695,25.3255045 C37.5576197,24.9038974 36.7024246,23.3741856 37.1285377,21.9087975 L40.0667421,11.8044149 L50.6095281,7.91466267 L59.1947691,10.879239 L61.804157,19.872863 L67.5993137,22.4178384 C69.0079268,23.0364387 69.6429991,24.6677446 69.0177873,26.0614621 C68.3925756,27.4551795 66.7438347,28.0835361 65.3352216,27.4649358 L57.1587635,23.8741985 L55.9407606,19.6761794 L52.9723798,26.796746 L62.469245,49.0767696 C63.1176434,50.4600769 62.5098968,52.1015413 61.1118051,52.743083 C59.7137134,53.3846246 58.0547055,52.7833048 57.4063072,51.3999976 L48.8587456,33.1644413 L39.932784,51.439702 C39.2622231,52.8126268 37.5937555,53.3877537 36.2061573,52.7242838 C34.818559,52.060814 34.2372854,50.40999 34.9078462,49.0370652 L44.8147399,28.3444056 Z M57.0605541,7.91473429 C54.8516015,7.91473429 53.0608916,6.14296067 53.0608916,3.95736715 C53.0608916,1.77177362 54.8516015,0 57.0605541,0 C59.2695066,0 61.0602165,1.77177362 61.0602165,3.95736715 C61.0602165,6.14296067 59.2695066,7.91473429 57.0605541,7.91473429 Z" id="Combined-Shape-Copy-2"></path>
                    <path d="M10.1855264,28.3444056 C9.08452768,26.3126416 9.18943514,24.1317083 10.5002488,21.8016056 L13.0574661,14.8863689 L10.0231216,16.0058878 L7.86267982,23.4355717 C7.43656673,24.9009598 5.89050577,25.7471115 4.40945601,25.3255045 C2.92840626,24.9038974 2.07321112,23.3741856 2.4993242,21.9087975 L5.4375286,11.8044149 L15.9803146,7.91466267 L24.5655556,10.879239 L27.1749435,19.872863 L32.9701002,22.4178384 C34.3787133,23.0364387 35.0137856,24.6677446 34.3885738,26.0614621 C33.7633621,27.4551795 32.1146212,28.0835361 30.7060081,27.4649358 L22.52955,23.8741985 L21.3115471,19.6761794 L18.3431663,26.796746 L27.8400316,49.0767696 C28.4884299,50.4600769 27.8806833,52.1015413 26.4825916,52.743083 C25.0845,53.3846246 23.425492,52.7833048 22.7770937,51.3999976 L14.2295321,33.1644413 L5.30357049,51.439702 C4.63300966,52.8126268 2.96454206,53.3877537 1.57694381,52.7242838 C0.189345554,52.060814 -0.391928127,50.40999 0.278632704,49.0370652 L10.1855264,28.3444056 Z M22.4313406,7.91473429 C20.222388,7.91473429 18.4316781,6.14296067 18.4316781,3.95736715 C18.4316781,1.77177362 20.222388,0 22.4313406,0 C24.6402931,0 26.431003,1.77177362 26.431003,3.95736715 C26.431003,6.14296067 24.6402931,7.91473429 22.4313406,7.91473429 Z" id="Combined-Shape-Copy-3"></path>
                </g>
            </g>
        </g>
    </g>
</svg>