<?xml version="1.0" encoding="UTF-8"?>
<svg width="44px" height="38px" viewBox="0 0 44 38" version="1.1" xmlns="http://www.w3.org/2000/svg" xmlns:xlink="http://www.w3.org/1999/xlink">
    <!-- Generator: Sketch 49.3 (51167) - http://www.bohemiancoding.com/sketch -->
    <title>toilets</title>
    <desc>Created with Sketch.</desc>
    <defs></defs>
    <g id="Mable-v2" stroke="none" stroke-width="1" fill="none" fill-rule="evenodd">
        <g id="On-the-Spot-quitePlaces" transform="translate(-186.000000, -302.000000)" fill="#000000">
            <g id="Group-5" transform="translate(66.000000, 227.000000)">
                <path d="M160.785139,81.5928057 C160.752114,81.5889853 160.718579,81.5870327 160.684535,81.5870327 L158.869001,81.5870327 C159.525174,80.8868824 159.928183,79.9466418 159.928183,78.9136931 C159.928183,76.7556817 158.172586,75.0000849 156.014659,75.0000849 C153.856648,75.0000849 152.101051,76.7556817 152.101051,78.9136931 C152.101051,79.9467267 152.504145,80.8868824 153.160233,81.5870327 L151.344699,81.5870327 C151.336718,81.5870327 151.328823,81.5871176 151.321012,81.5873723 C151.312523,81.5872025 151.304118,81.5870327 151.295543,81.5870327 C149.733852,81.5870327 148.463445,82.8575248 148.463445,84.4192156 L148.463445,92.6776267 C148.463445,93.9554201 149.314204,95.0382886 150.478829,95.3896796 L150.478829,108.801119 C150.478829,110.362809 151.749321,111.633301 153.311011,111.633301 C154.578702,111.633301 155.654439,110.796127 156.014575,109.645425 C156.37471,110.795957 157.450532,111.633301 158.718223,111.633301 C160.279913,111.633301 161.550321,110.362809 161.550321,108.801119 L161.550321,95.3593712 C162.673515,94.9825958 163.467393,93.9301206 163.467393,92.6775418 L163.467393,84.4191307 C163.467562,82.8975116 162.295721,81.6707417 160.785139,81.5928057 L160.785139,81.5928057 L160.785139,81.5928057 Z M156.014659,76.7317406 C157.217743,76.7317406 158.196442,77.7105247 158.196442,78.9136082 C158.196442,80.1166916 157.217658,81.0954757 156.014659,81.0954757 C154.811661,81.0954757 153.832792,80.1166916 153.832792,78.9136082 C153.832792,77.7105247 154.811576,76.7317406 156.014659,76.7317406 L156.014659,76.7317406 L156.014659,76.7317406 Z M161.735907,92.6775418 C161.735822,93.2784468 161.26464,93.7608348 160.663141,93.7756919 C160.193403,93.7874078 159.81875,94.1714844 159.81875,94.6413075 L159.81875,108.801034 C159.81875,109.407797 159.325155,109.901476 158.718392,109.901476 C158.111629,109.901476 157.61795,109.407881 157.61795,108.801034 L157.61795,97.4948846 C157.61795,97.0166566 157.230308,96.6290143 156.75208,96.6290143 L155.277324,96.6290143 C154.799096,96.6290143 154.411454,97.0166566 154.411454,97.4948846 L154.411454,108.801034 C154.411454,109.407797 153.917859,109.901476 153.311096,109.901476 C152.704333,109.901476 152.210654,109.407881 152.210654,108.801034 L152.210654,94.6413075 C152.210654,94.4081788 152.116672,94.1848982 151.949934,94.0220646 C151.783195,93.8592311 151.557113,93.771447 151.324748,93.7756919 C151.309297,93.7760315 151.294015,93.7767956 151.277545,93.7777294 C150.679102,93.768136 150.195101,93.2781921 150.195101,92.6774569 L150.195101,84.4190458 C150.195101,83.8183955 150.678677,83.3286214 151.277035,83.3187733 C151.292911,83.3197072 151.381629,83.3207259 151.40973,83.3186035 L160.61857,83.3186035 C160.633257,83.3197072 160.648114,83.3203864 160.663056,83.3208957 C161.264555,83.3357528 161.735737,83.8181408 161.735737,84.4190458 L161.735737,92.6775418 L161.735907,92.6775418 L161.735907,92.6775418 Z M138.425496,91.588306 L134.984428,83.32981 C134.518255,82.2110298 133.373836,81.5099457 132.171601,81.5949281 C132.170837,81.5948432 132.170158,81.5949281 132.169479,81.5948432 C132.830067,80.893844 133.236132,79.9505471 133.236132,78.9136082 C133.236132,76.7555969 131.480535,75 129.322524,75 C127.164513,75 125.408916,76.7555969 125.408916,78.9136082 C125.408916,79.950632 125.815151,80.8940987 126.475823,81.5950979 C126.459353,81.5966261 126.442968,81.5978147 126.426498,81.5998522 C125.189371,81.4885515 124.02152,82.1948144 123.551187,83.3566376 L120.20843,91.6149638 C119.924618,92.3162178 119.930815,93.085984 120.226004,93.7825686 C120.521193,94.4790683 121.069886,95.0190168 121.771055,95.3028294 C122.11107,95.4405332 122.468319,95.5103191 122.833039,95.5103191 C123.146565,95.5103191 123.450499,95.4595503 123.735839,95.3642103 C123.676835,95.599886 123.615539,95.8341184 123.551951,96.0667377 L122.59558,99.5664703 C122.204627,100.99674 122.738378,102.499427 123.786608,103.188031 L123.786608,108.801034 C123.786608,110.362724 125.0571,111.633217 126.618791,111.633217 C127.886481,111.633217 128.962388,110.796127 129.322439,109.645425 C129.682574,110.795957 130.758312,111.633217 132.026087,111.633217 C133.587778,111.633217 134.85827,110.362724 134.85827,108.801034 L134.85827,103.188031 C135.9065,102.499427 136.440166,100.996655 136.049383,99.5665552 L135.092927,96.0667377 C135.029254,95.8337788 134.967873,95.5994615 134.908869,95.3634463 C135.194634,95.4591258 135.498822,95.5101493 135.812094,95.5101493 C136.186577,95.5101493 136.552741,95.436628 136.900566,95.2917927 C138.342042,94.6912273 139.026146,93.0297818 138.425496,91.588306 L138.425496,91.588306 Z M129.322354,76.7317406 C130.525438,76.7317406 131.504222,77.7105247 131.504222,78.9136082 C131.504222,80.1166916 130.525438,81.0954757 129.322354,81.0954757 C128.119271,81.0954757 127.140571,80.1166068 127.140571,78.9136082 C127.140571,77.7106096 128.119356,76.7317406 129.322354,76.7317406 L129.322354,76.7317406 Z M136.23446,93.6932564 C136.098793,93.7497981 135.956675,93.7784935 135.812009,93.7784935 C135.366042,93.7784935 134.967024,93.5125094 134.795446,93.1007562 L134.14513,91.5397446 C133.977373,91.1373301 133.536754,90.9222846 133.116511,91.0379151 C132.696184,91.1532909 132.427228,91.5633461 132.488694,91.9948805 C132.707899,93.5343281 133.022105,95.057815 133.422567,96.523232 L134.379023,100.023049 C134.603747,100.845282 134.21602,101.677024 133.745008,101.817529 C133.378166,101.926962 133.126699,102.26443 133.126699,102.647318 L133.126699,108.801034 C133.126699,109.407797 132.633105,109.901476 132.026257,109.901476 C131.419494,109.901476 130.925814,109.407881 130.925814,108.801034 L130.925814,102.705558 C130.925814,102.22733 130.538172,101.839688 130.059944,101.839688 L128.585188,101.839688 C128.10696,101.839688 127.719318,102.22733 127.719318,102.705558 L127.719318,108.801034 C127.719318,109.407797 127.225724,109.901476 126.618876,109.901476 C126.012113,109.901476 125.518434,109.407881 125.518434,108.801034 L125.518434,102.647318 C125.518434,102.26443 125.266967,101.927047 124.900125,101.817529 C124.429198,101.677024 124.041471,100.845282 124.266109,100.023049 L125.222481,96.523232 C125.629055,95.035402 125.946657,93.4878042 126.166457,91.9233118 C126.227328,91.4902493 125.955741,91.0798545 125.533376,90.9665162 C125.11118,90.8530931 124.670562,91.0725533 124.506455,91.4779392 L123.853762,93.0903987 C123.684561,93.5084343 123.28393,93.7784935 122.833039,93.7784935 C122.692193,93.7784935 122.553471,93.7513263 122.420861,93.6975012 C122.14834,93.5873042 121.935162,93.3774374 121.820465,93.1067839 C121.705853,92.8362154 121.703307,92.5370364 121.813588,92.2645152 L125.156176,84.0061889 C125.345922,83.5375543 125.856326,83.3312532 126.32963,83.3312532 L132.248264,83.3264141 C132.750942,83.3264141 133.199117,83.5474874 133.385891,83.9958314 L136.826875,92.2542425 C137.060173,92.8143967 136.794359,93.4599578 136.23446,93.6932564 L136.23446,93.6932564 Z M143.676241,75.1966228 C142.11455,75.1966228 140.844058,76.4671149 140.844058,78.0287208 L140.844058,109.390817 C140.844058,110.952508 142.11455,112.223 143.676241,112.223 C145.237932,112.223 146.508424,110.952508 146.508424,109.390817 L146.508424,78.0288057 C146.508339,76.4671149 145.237847,75.1966228 143.676241,75.1966228 L143.676241,75.1966228 Z M144.776598,109.390902 C144.776598,109.997665 144.283004,110.491344 143.676156,110.491344 C143.069478,110.491344 142.575799,109.99775 142.575799,109.390902 L142.575799,78.0288057 C142.575799,77.4221277 143.069393,76.9284483 143.676156,76.9284483 C144.282919,76.9284483 144.776598,77.4220428 144.776598,78.0288057 L144.776598,109.390902 L144.776598,109.390902 Z" id="toilets"></path>
            </g>
        </g>
    </g>
</svg>