<?xml version="1.0" encoding="UTF-8"?>
<svg width="47px" height="50px" viewBox="0 0 47 50" version="1.1" xmlns="http://www.w3.org/2000/svg" xmlns:xlink="http://www.w3.org/1999/xlink">
    <!-- Generator: Sketch 49.3 (51167) - http://www.bohemiancoding.com/sketch -->
    <title>signals</title>
    <desc>Created with Sketch.</desc>
    <defs></defs>
    <g id="Mable-v2" stroke="none" stroke-width="1" fill="none" fill-rule="evenodd">
        <g id="On-the-Spot" transform="translate(-871.000000, -293.000000)" fill="#000000">
            <g id="free-wifi" transform="translate(742.000000, 227.000000)">
                <path d="M169.021293,72.7359792 C164.67707,68.3919508 158.901276,65.9995223 152.757701,65.9995223 C146.614127,65.9995223 140.83843,68.3919508 136.494207,72.7359792 C132.150179,77.0802028 129.75775,82.8559967 129.75775,88.9995712 C129.75775,95.1432432 132.150081,100.919135 136.494207,105.263065 C137.02576,105.794814 137.732707,106.087593 138.484479,106.087593 C139.236251,106.087593 139.943101,105.794814 140.474556,105.263163 C141.006207,104.731708 141.298986,104.024761 141.298986,103.272988 C141.298986,102.521314 141.006207,101.814367 140.474654,101.282911 C137.193732,98.0018916 135.386764,93.6396012 135.386764,88.9996688 C135.386764,79.4211655 143.179588,71.6287314 152.757896,71.6287314 C162.336204,71.6287314 170.128834,79.4212631 170.128834,88.9996688 C170.128834,93.6396012 168.321963,98.0017939 165.040944,101.282814 C164.509293,101.814367 164.216514,102.521216 164.216514,103.272988 C164.216514,104.024761 164.509293,104.73161 165.040846,105.263065 C165.572301,105.794716 166.279249,106.087495 167.031021,106.087495 C167.782793,106.087495 168.48974,105.794716 169.021196,105.263163 C173.365321,100.919037 175.75775,95.1432432 175.75775,88.9995712 C175.757848,82.8559967 173.365419,77.0802028 169.021293,72.7359792 L169.021293,72.7359792 L169.021293,72.7359792 Z M167.612477,103.85464 C167.457201,104.009917 167.250752,104.095465 167.031021,104.095465 C166.81129,104.095465 166.604841,104.009917 166.449467,103.854542 C166.29419,103.699168 166.208642,103.492719 166.208642,103.272988 C166.208642,103.053355 166.29419,102.846808 166.449564,102.691434 C170.106665,99.0343332 172.120766,94.1718379 172.120766,88.9997665 C172.120766,78.323 163.434565,69.6367012 152.757701,69.6367012 C142.080837,69.6367012 133.394734,78.3229023 133.394734,88.9996688 C133.394734,94.1717403 135.408835,99.0342355 139.066033,102.691434 C139.22131,102.846711 139.306858,103.053258 139.306858,103.272891 C139.306858,103.492524 139.221407,103.699071 139.065936,103.854445 C138.910659,104.009819 138.704112,104.095367 138.484479,104.095367 C138.264846,104.095367 138.058299,104.009917 137.902925,103.854445 C133.934978,99.8866932 131.74978,94.6111042 131.74978,88.9995712 C131.74978,83.3881358 133.934978,78.1125467 137.902828,74.1445998 C141.870872,70.1766529 147.146461,67.9914549 152.757799,67.9914549 C158.369137,67.9914549 163.644726,70.1766529 167.612672,74.1445998 C171.580619,78.1125467 173.765817,83.3881358 173.765817,88.9995712 C173.76572,94.6112018 171.580522,99.8867909 167.612477,103.85464 L167.612477,103.85464 Z M152.757799,72.8188909 C143.835753,72.8188909 136.577119,80.0775257 136.577119,88.9995712 C136.577119,93.3216264 138.260256,97.3849853 141.316369,100.441098 C142.413754,101.538483 144.199335,101.538385 145.296719,100.441098 C146.394005,99.3438118 146.394005,97.5581331 145.296719,96.4607489 C143.303712,94.467742 142.20623,91.8179844 142.20623,88.9996688 C142.20623,83.1813936 146.939621,78.4481 152.757799,78.4481 C158.575976,78.4481 163.309368,83.1815889 163.309368,88.9996688 C163.309368,91.818082 162.211788,94.4678397 160.218879,96.4607489 C159.121592,97.5581331 159.121592,99.3437141 160.218879,100.441098 C160.750432,100.972651 161.457281,101.265431 162.209054,101.265431 C162.960826,101.265431 163.667675,100.972749 164.199228,100.441098 C167.255341,97.3849853 168.938479,93.3216264 168.938479,88.9995712 C168.938479,80.0775257 161.679844,72.8188909 152.757799,72.8188909 L152.757799,72.8188909 Z M162.790608,99.0324777 C162.635331,99.1878518 162.428882,99.2734003 162.209151,99.2734003 C161.989421,99.2734003 161.782971,99.1878518 161.627597,99.0324777 C161.306888,98.7118661 161.306888,98.1900788 161.627597,97.8692719 C163.996685,95.500086 165.301496,92.3500258 165.301496,88.9995712 C165.301496,82.0830328 159.674435,76.4558745 152.757799,76.4558745 C145.841163,76.4558745 140.214102,82.0829351 140.2142,88.9995712 C140.2142,92.3500258 141.518912,95.500086 143.888098,97.8692719 C144.20871,98.1899811 144.20871,98.7118661 143.888098,99.0324777 C143.567291,99.3530893 143.045504,99.3531869 142.724892,99.0324777 C140.044958,96.3526413 138.569149,92.7894873 138.569149,88.9996688 C138.569149,81.1759842 144.934114,74.8110188 152.757799,74.8110188 C160.581483,74.8110188 166.946449,81.1760818 166.946449,88.9996688 C166.946351,92.789585 165.470542,96.352739 162.790608,99.0324777 L162.790608,99.0324777 Z M155.683929,97.9227885 C155.524356,96.6011812 156.055811,95.3146332 157.105636,94.4814142 C158.789359,93.1449629 159.755003,91.1468778 159.755003,88.9996688 C159.755003,87.0693585 158.985945,85.2718632 157.589532,83.938537 C156.193802,82.605699 154.35988,81.9209203 152.427519,82.0101798 C148.862607,82.1748314 145.937649,85.0958833 145.7687,88.6604045 C145.662546,90.8984356 146.642838,93.0688872 148.390919,94.4663748 C149.451876,95.3146332 149.990461,96.6068454 149.831669,97.9229838 L147.784755,114.885124 C147.750574,115.16804 147.839345,115.451932 148.028314,115.665217 C148.21738,115.878503 148.488674,116.000478 148.773641,116.000478 L156.741957,116.000478 C157.026923,116.000478 157.298218,115.878503 157.487381,115.66512 C157.676447,115.451834 157.765121,115.167942 157.730941,114.885027 L155.683929,97.9227885 L155.683929,97.9227885 Z M149.897002,114.008447 L151.809246,98.1615626 C152.051242,96.1555673 151.238434,94.1924438 149.634595,92.9103881 C148.365039,91.8954273 147.681139,90.3807499 147.758289,88.7547423 C147.879092,86.2062561 149.970246,84.1179349 152.519025,84.0001592 C153.904793,83.9362908 155.215268,84.4260463 156.213529,85.3792871 C157.212571,86.3332116 157.76268,87.6189784 157.76268,88.9996688 C157.76268,90.5354403 157.071748,91.9648622 155.86694,92.9211305 C154.270718,94.1881469 153.462793,96.1471687 153.705961,98.1615626 L155.618303,114.008447 L149.897002,114.008447 L149.897002,114.008447 L149.897002,114.008447 Z" id="signals"></path>
            </g>
        </g>
    </g>
</svg>