<?xml version="1.0" encoding="UTF-8"?>
<svg width="132px" height="112px" viewBox="0 0 132 112" version="1.1" xmlns="http://www.w3.org/2000/svg" xmlns:xlink="http://www.w3.org/1999/xlink">
    <!-- Generator: Sketch 49.3 (51167) - http://www.bohemiancoding.com/sketch -->
    <title>Group 9</title>
    <desc>Created with Sketch.</desc>
    <defs></defs>
    <g id="Mable-v2" stroke="none" stroke-width="1" fill="none" fill-rule="evenodd">
        <g id="Discover" transform="translate(-503.000000, -525.000000)">
            <g id="Group-Copy" transform="translate(465.000000, 525.000000)">
                <g id="Group-9" transform="translate(39.000000, 0.000000)">
                    <path d="M62.0596001,48.0284997 C60.2155522,44.5857543 60.3912603,40.8902471 62.5867243,36.9419781 L66.8697729,25.2243767 L61.7875904,27.1213583 L58.1690958,39.7106706 C57.4554048,42.193714 54.8659282,43.6274854 52.3853381,42.9130885 C49.9047479,42.1986916 48.4723932,39.6066541 49.1860842,37.1236106 L54.1072429,20.0021248 L71.7652123,13.41109 L86.1445159,18.43445 L90.5149443,33.6737982 L100.221174,37.9861607 C102.580441,39.0343551 103.644115,41.7985399 102.596956,44.1601403 C101.549797,46.5217406 98.7883435,47.5864666 96.4290765,46.5382722 L82.7344377,40.4539067 L80.6944211,33.3405256 L75.7227204,45.4060505 L91.6288913,83.1586893 C92.7148848,85.50265 91.6969784,88.284048 89.3553336,89.3711156 C87.0136888,90.4581832 84.2350389,89.43927 83.1490453,87.0953093 L68.8328503,56.195864 L53.8828783,87.162587 C52.759765,89.488955 49.9652713,90.4634852 47.6412018,89.3392612 C45.3171323,88.2150372 44.3435649,85.4177797 45.4666781,83.0914117 L62.0596001,48.0284997 Z M82.5699481,13.4112114 C78.8702034,13.4112114 75.8709677,10.4090094 75.8709677,6.70560568 C75.8709677,3.00220193 78.8702034,0 82.5699481,0 C86.2696928,0 89.2689285,3.00220193 89.2689285,6.70560568 C89.2689285,10.4090094 86.2696928,13.4112114 82.5699481,13.4112114 Z" id="Combined-Shape" fill="#000000" fill-rule="nonzero"></path>
                    <path d="M0.550964658,89.9226733 L129.278577,89.9226733" id="Path-8" stroke="#000000" stroke-width="2" stroke-linecap="round"></path>
                    <polyline id="Path-9" stroke="#000000" stroke-width="2" stroke-linecap="round" points="56.9325998 110.238956 77.2163064 101.290214 56.9325998 95.0045945 77.2163064 90.3201056"></polyline>
                </g>
            </g>
        </g>
    </g>
</svg>