<?xml version="1.0" encoding="UTF-8"?>
<svg width="33px" height="50px" viewBox="0 0 33 50" version="1.1" xmlns="http://www.w3.org/2000/svg" xmlns:xlink="http://www.w3.org/1999/xlink">
    <!-- Generator: Sketch 49.3 (51167) - http://www.bohemiancoding.com/sketch -->
    <title>flower</title>
    <desc>Created with Sketch.</desc>
    <defs></defs>
    <g id="Mable-v2" stroke="none" stroke-width="1" fill="none" fill-rule="evenodd">
        <g id="On-the-Spot" transform="translate(-534.000000, -302.000000)" stroke="#000000" stroke-width="2">
            <g id="quite-places" transform="translate(404.000000, 227.000000)">
                <g id="flower" transform="translate(131.000000, 76.000000)">
                    <path d="M14,22 C14,22 17.4248607,25.839415 17.6741177,32.0708405 C17.9248563,38.3393052 15,47 15,47" id="Line-2" stroke-linecap="square"></path>
                    <path d="M6.12732909,20.6071209 C5.96724348,20.2262411 5.82775864,19.8339952 5.71032581,19.4318812 C2.79011065,19.1663152 0.5,16.6350584 0.5,13.5516633 C0.5,10.2914017 3.06037159,7.6484375 6.21875,7.6484375 C7.12471055,7.6484375 7.98146755,7.86589858 8.74270671,8.25301242 C9.16034781,7.8654003 9.60831341,7.51191883 10.0824827,7.19682173 C10.0486955,6.93725534 10.03125,6.6723436 10.03125,6.40322581 C10.03125,3.14296422 12.5916216,0.5 15.75,0.5 C18.9083784,0.5 21.46875,3.14296422 21.46875,6.40322581 C21.46875,6.6723436 21.4513045,6.93725534 21.4175173,7.19682173 C21.8916866,7.51191883 22.3396522,7.8654003 22.7572933,8.25301242 C23.5185324,7.86589858 24.3752895,7.6484375 25.28125,7.6484375 C28.4396284,7.6484375 31,10.2914017 31,13.5516633 C31,16.6350584 28.7098893,19.1663152 25.7896751,19.431878 C25.6722421,19.8339932 25.5327569,20.2262402 25.3726709,20.6071209 C26.6000682,21.6898528 27.3781366,23.2995186 27.3781366,25.0967742 C27.3781366,28.3570358 24.817765,31 21.6593866,31 C19.1867334,31 17.0806058,29.3800956 16.2826262,27.1122844 C16.1061978,27.1213972 15.9286206,27.1260081 15.75,27.1260081 C15.5713794,27.1260081 15.3938022,27.1213972 15.2173738,27.1122844 C14.4193942,29.3800956 12.3132666,31 9.84061337,31 C6.68223495,31 4.12186337,28.3570358 4.12186337,25.0967742 C4.12186337,23.2995186 4.89993178,21.6898528 6.12732909,20.6071209 Z M15.75,20.1774194 C17.8555856,20.1774194 19.5625,18.4154432 19.5625,16.2419355 C19.5625,14.0684278 17.8555856,12.3064516 15.75,12.3064516 C13.6444144,12.3064516 11.9375,14.0684278 11.9375,16.2419355 C11.9375,18.4154432 13.6444144,20.1774194 15.75,20.1774194 Z" id="Combined-Shape" fill="#F8F7F5"></path>
                </g>
            </g>
        </g>
    </g>
</svg>