<?xml version="1.0" encoding="UTF-8"?>
<svg width="50px" height="39px" viewBox="0 0 50 39" version="1.1" xmlns="http://www.w3.org/2000/svg" xmlns:xlink="http://www.w3.org/1999/xlink">
    <!-- Generator: Sketch 50 (54983) - http://www.bohemiancoding.com/sketch -->
    <title>Group 21</title>
    <desc>Created with Sketch.</desc>
    <defs></defs>
    <g id="Mable-v3" stroke="none" stroke-width="1" fill="none" fill-rule="evenodd">
        <g id="Group-21">
            <path d="M22.3513219,18.5897399 C21.6367548,17.2802882 21.7048415,15.8746983 22.5555821,14.3729703 L24.2152599,9.916169 L22.2459183,10.6376878 L20.8437546,15.4260453 C20.5671999,16.3704733 19.5637799,16.9158097 18.6025532,16.6440881 C17.6413266,16.3723665 17.0862903,15.3864825 17.362845,14.4420544 L19.2697899,7.92988027 L26.1122387,5.42297365 L31.6842071,7.33361361 L33.3777445,13.1299149 L37.1389005,14.7701262 C38.0531145,15.168808 38.4652873,16.2201684 38.0595142,17.1184055 C37.653741,18.0166425 36.58368,18.4216121 35.6694659,18.0229303 L30.3628046,15.7087359 L29.5722998,13.0031543 L27.6457698,17.5922887 L33.8093981,31.9515424 C34.2302197,32.8430701 33.8357818,33.9009776 32.9283963,34.3144449 C32.0210109,34.7279121 30.9442863,34.3403675 30.5234647,33.4488397 L24.9759508,21.6962049 L19.1828488,33.4744288 C18.7476434,34.3592652 17.6647793,34.7299288 16.7642043,34.302329 C15.8636292,33.8747293 15.4863727,32.8107896 15.9215781,31.9259533 L22.3513219,18.5897399 Z M30.299065,5.42301981 C28.8654169,5.42301981 27.7032156,4.28112932 27.7032156,2.87253602 C27.7032156,1.46394272 28.8654169,0.322052238 30.299065,0.322052238 C31.732713,0.322052238 32.8949144,1.46394272 32.8949144,2.87253602 C32.8949144,4.28112932 31.732713,5.42301981 30.299065,5.42301981 Z" id="Combined-Shape-Copy-2" fill="#000000" fill-rule="nonzero"></path>
            <polygon id="Path-23" stroke="#000000" stroke-width="0.7" points="11.2034192 32.181357 36.806929 32.181357 49.5528863 37.7310275 8.59605551e-17 37.7310275"></polygon>
            <path d="M8.10185185,33.7904249 L15.0617113,33.7904249" id="Line-6" stroke="#000000" stroke-width="0.7" stroke-linecap="square"></path>
            <path d="M33.5648148,33.7904249 L40.5246742,33.7904249" id="Line-6-Copy" stroke="#000000" stroke-width="0.7" stroke-linecap="round"></path>
            <path d="M24.7685185,37.4682942 L24.7685185,35.1696259" id="Line-7" stroke="#000000" stroke-width="0.7" stroke-linecap="square"></path>
        </g>
    </g>
</svg>