<?xml version="1.0" encoding="UTF-8"?>
<svg width="46px" height="59px" viewBox="0 0 46 59" version="1.1" xmlns="http://www.w3.org/2000/svg" xmlns:xlink="http://www.w3.org/1999/xlink">
    <!-- Generator: Sketch 50 (54983) - http://www.bohemiancoding.com/sketch -->
    <title>noun_1452987_cc</title>
    <desc>Created with Sketch.</desc>
    <defs></defs>
    <g id="Mable-v3" stroke="none" stroke-width="1" fill="none" fill-rule="evenodd">
        <g id="Home" transform="translate(-101.000000, -396.000000)" fill="#000000" fill-rule="nonzero">
            <g id="noun_1452987_cc" transform="translate(101.000000, 396.000000)">
                <g id="Group">
                    <path d="M23,58.9524194 C23,58.9524194 23,58.9524194 23,58.9524194 C21.70625,58.9524194 20.4604167,58.2387097 19.5979167,57.0491935 L18.5916667,55.6217742 C13.8479167,49.0080645 9.10416667,42.3943548 4.36041667,35.7330645 C1.67708333,31.9741935 0.191666667,27.6443548 0.191666667,23.5524194 C0.191666667,11.8951613 7.85833333,2.4266129 18.83125,0.428225806 C24.8208333,-0.666129032 30.8583333,0.618548387 35.8895833,4.04435484 C40.9208333,7.47016129 44.3229167,12.608871 45.3770833,18.5564516 C46.5270833,24.7895161 45.2333333,30.5467742 41.5916667,35.7806452 C37.9979167,40.8717742 34.35625,45.9153226 30.7625,50.958871 L26.4020833,57.0967742 C25.5395833,58.2387097 24.29375,58.9524194 23,58.9524194 Z M23,4.61532258 C21.8979167,4.61532258 20.7958333,4.71048387 19.6458333,4.90080645 C10.925,6.51854839 4.79166667,14.1790323 4.79166667,23.5524194 C4.83958333,26.6451613 6.0375,30.166129 8.14583333,33.116129 C12.8416667,39.7298387 17.5854167,46.3435484 22.3291667,53.0048387 L23,53.9564516 L27.025,48.3419355 C30.61875,43.2508065 34.2604167,38.2072581 37.8541667,33.116129 C40.7770833,28.9766129 41.83125,24.3137097 40.8729167,19.3653226 C40.0104167,14.6548387 37.2791667,10.5153226 33.3020833,7.80322581 C30.1875,5.70967742 26.6416667,4.61532258 23,4.61532258 Z" id="Shape"></path>
                    <path d="M32.3530933,20.5103139 C32.3530933,15.6182076 28.3476827,11.6011121 23.3809734,11.6011121 C18.4543183,11.6011121 14.4088535,15.5784344 14.4088535,20.5103139 C14.4088535,24.8455952 17.5330739,28.4649584 21.6586468,29.2604229 L20.7774565,34.2320757 C20.7374024,34.4309418 20.7374024,34.6695811 20.7774565,34.9082204 C20.977727,36.3400564 22.2594584,37.334387 23.7014063,37.1355209 C25.1433541,36.9366548 26.1447068,35.6639117 25.9444363,34.2320757 L25.1033,29.2604229 C29.228873,28.4649584 32.3530933,24.8455952 32.3530933,20.5103139 Z M24.8229213,27.2717617 C24.342272,27.3513082 23.8616227,27.4308546 23.3809734,27.4308546 C22.9003242,27.4308546 22.3796208,27.3910814 21.9390256,27.2717617 C18.8148053,26.595617 16.4115589,23.8114914 16.4115589,20.5103139 C16.4115589,16.6920846 19.5357792,13.5897732 23.3809734,13.5897732 C27.2261677,13.5897732 30.350388,16.6920846 30.350388,20.5103139 C30.350388,23.8512646 27.9871957,26.595617 24.8229213,27.2717617 Z" id="Shape" transform="translate(23.380973, 24.380973) rotate(-315.000000) translate(-23.380973, -24.380973) "></path>
                </g>
            </g>
        </g>
    </g>
</svg>