<?xml version="1.0" encoding="UTF-8"?>
<svg width="63px" height="63px" viewBox="0 0 63 63" version="1.1" xmlns="http://www.w3.org/2000/svg" xmlns:xlink="http://www.w3.org/1999/xlink">
    <!-- Generator: Sketch 49.3 (51167) - http://www.bohemiancoding.com/sketch -->
    <title>Group 8</title>
    <desc>Created with Sketch.</desc>
    <defs></defs>
    <g id="Mable-v2" stroke="none" stroke-width="1" fill="none" fill-rule="evenodd">
        <g id="Discover" transform="translate(-824.000000, -528.000000)" fill="#000000">
            <g id="Group-Copy-2" transform="translate(814.000000, 528.000000)">
                <g id="Group-8" transform="translate(10.000000, 0.000000)">
                    <path d="M25.5,7.5 L18,7.5 L18,54.7460346 C18,55.1678531 18.334241,55.5 18.7465482,55.5 L24.7534518,55.5 C25.1582517,55.5 25.5,55.1624382 25.5,54.7460346 L25.5,39 L25.5,7.5 Z M0,1.49517368 C0,0.669412057 0.664892659,0 1.49517368,0 L61.5048263,0 C62.3305879,0 63,0.664892659 63,1.49517368 L63,61.5048263 C63,62.3305879 62.3351073,63 61.5048263,63 L1.49517368,63 C0.669412057,63 0,62.3351073 0,61.5048263 L0,1.49517368 Z M25.5,7.5 L25.5,39 C25.5,39 25.5,39 33.5,39 C41.5,39 49.5,35.0625 49.5,23.25 C49.5,11.4375 41.5,7.5 33.5,7.5 C25.5,7.5 25.5,7.5 25.5,7.5 Z" id="Combined-Shape"></path>
                    <path d="M25.5,16.5 C25.5,16.5 29.625,16.5 33.75,16.5 C37.875,16.5 42,18.375 42,24 C42,29.625 37.875,31.5 33.75,31.5 C29.625,31.5 25.5,31.5 25.5,31.5 L25.5,16.5 Z" id="Path-40"></path>
                </g>
            </g>
        </g>
    </g>
</svg>