<?xml version="1.0" encoding="UTF-8"?>
<svg width="144px" height="30px" viewBox="0 0 144 30" version="1.1" xmlns="http://www.w3.org/2000/svg" xmlns:xlink="http://www.w3.org/1999/xlink">
    <!-- Generator: Sketch 49.3 (51167) - http://www.bohemiancoding.com/sketch -->
    <title>Logo</title>
    <desc>Created with Sketch.</desc>
    <defs></defs>
    <g id="Symbols" stroke="none" stroke-width="1" fill="none" fill-rule="evenodd">
        <g id="nav-v2" transform="translate(-36.000000, -20.000000)">
            <g id="Logo" transform="translate(37.000000, 21.000000)">
                <g>
                    <ellipse id="Oval" stroke="#000000" stroke-width="1.5" stroke-linecap="round" cx="17.6506276" cy="9.95504637" rx="10.4707113" ry="9.95504637"></ellipse>
                    <polyline id="Path-2" stroke="#000000" stroke-width="1.5" stroke-linecap="round" points="0 27.425641 8.40503117 23.2340426 18.3376797 27.425641 26.5254284 23.2340426 34.6168941 27.425641"></polyline>
                    <path d="M62.6785753,5.63715003 L65.0282029,5.63715003 L65.0282029,21.9677032 L62.4021485,21.9677032 L62.4021485,11.829916 L58.0484268,21.9677032 L56.0904038,21.9677032 L51.7136464,11.9445968 L51.7136464,21.9677032 L49.0875921,21.9677032 L49.0875921,5.63715003 L51.4372197,5.63715003 L57.0809331,18.4125968 L62.6785753,5.63715003 Z M85.3413828,21.9677032 L83.7058577,18.1373628 L75.6894812,18.1373628 L74.0309205,21.9677032 L71.0362971,21.9677032 L78.453749,5.63715003 L80.8724833,5.63715003 L88.3129707,21.9677032 L85.3413828,21.9677032 Z M76.6800105,15.8437458 L82.7153285,15.8437458 L79.6976695,8.84821386 L76.6800105,15.8437458 Z M106.564468,14.9721713 C107.078931,15.6602599 107.336159,16.5088897 107.336159,17.5180862 C107.336159,18.9095541 106.840899,19.9990113 105.850365,20.7864905 C104.859831,21.5739696 103.48155,21.9677032 101.715481,21.9677032 L94.2749937,21.9677032 L94.2749937,5.63715003 L101.485126,5.63715003 C103.174409,5.63715003 104.50278,6.01559305 105.470278,6.77249045 C106.437777,7.52938785 106.921519,8.57297316 106.921519,9.90327769 C106.921519,10.7595657 106.695005,11.5049837 106.24197,12.1395543 C105.788935,12.7741248 105.163141,13.2366663 104.364571,13.5271926 C105.316713,13.802428 106.050004,14.2840828 106.564468,14.9721713 Z M97.1774749,12.5180011 L101.001379,12.5180011 C103.059233,12.5180011 104.088144,11.7534697 104.088144,10.2243841 C104.088144,9.45984124 103.834756,8.88644272 103.327971,8.5041713 C102.821186,8.12189989 102.045663,7.93076705 101.001379,7.93076705 L97.1774749,7.93076705 L97.1774749,12.5180011 Z M103.754129,19.1006819 C104.253235,18.7184105 104.502785,18.1144308 104.502785,17.2887245 C104.502785,16.4477274 104.253235,15.828457 103.754129,15.4308947 C103.255022,15.0333324 102.467982,14.8345543 101.392983,14.8345543 L97.1774749,14.8345543 L97.1774749,19.6740862 L101.392983,19.6740862 C102.467982,19.6740862 103.255022,19.4829534 103.754129,19.1006819 Z M114.357818,21.9677032 L114.357818,5.63715003 L117.329406,5.63715003 L117.329406,19.5364692 L125.000249,19.5364692 L125.000249,21.9677032 L114.357818,21.9677032 Z M131.446019,21.9677032 L131.446019,5.63715003 L142.410948,5.63715003 L142.410948,7.97663939 L134.3485,7.97663939 L134.3485,12.4950649 L141.927201,12.4950649 L141.927201,14.8345543 L134.3485,14.8345543 L134.3485,19.6282139 L142.410948,19.6282139 L142.410948,21.9677032 L131.446019,21.9677032 Z" id="MABLE" fill="#000000"></path>
                </g>
            </g>
        </g>
    </g>
</svg>