<?xml version="1.0" encoding="UTF-8"?>
<svg width="157px" height="90px" viewBox="0 0 157 90" version="1.1" xmlns="http://www.w3.org/2000/svg" xmlns:xlink="http://www.w3.org/1999/xlink">
    <!-- Generator: Sketch 49.3 (51167) - http://www.bohemiancoding.com/sketch -->
    <title>Logo</title>
    <desc>Created with Sketch.</desc>
    <defs></defs>
    <g id="Mable-v2" stroke="none" stroke-width="1" fill="none" fill-rule="evenodd">
        <g id="Home" transform="translate(-86.000000, -144.000000)">
            <g id="Logo" transform="translate(86.000000, 146.000000)">
                <ellipse id="Oval" stroke="#000000" stroke-width="2.5" stroke-linecap="round" cx="78.5" cy="16.7102564" rx="17.5" ry="16.7102564"></ellipse>
                <polyline id="Path-2" stroke="#000000" stroke-width="2.5" stroke-linecap="round" points="49 46.0358974 63.0475696 39 79.6482899 46.0358974 93.332709 39 106.856208 46.0358974"></polyline>
                <path d="M22.7565,60.462359 L26.6835,60.462359 L26.6835,87.874359 L22.2945,87.874359 L22.2945,70.857359 L15.018,87.874359 L11.7455,87.874359 L4.4305,71.049859 L4.4305,87.874359 L0.0415,87.874359 L0.0415,60.462359 L3.9685,60.462359 L13.401,81.906859 L22.7565,60.462359 Z M60.6335,87.874359 L57.9,81.444859 L44.502,81.444859 L41.73,87.874359 L36.725,87.874359 L49.122,60.462359 L53.1645,60.462359 L65.6,87.874359 L60.6335,87.874359 Z M46.1575,77.594859 L56.2445,77.594859 L51.201,65.852359 L46.1575,77.594859 Z M96.10425,76.131859 C96.9640876,77.2868647 97.394,78.7113505 97.394,80.405359 C97.394,82.7410373 96.5662583,84.569769 94.91075,85.891609 C93.2552417,87.2134489 90.9516814,87.874359 88,87.874359 L75.5645,87.874359 L75.5645,60.462359 L87.615,60.462359 C90.4383474,60.462359 92.6584919,61.0976026 94.2755,62.368109 C95.8925081,63.6386153 96.701,65.3903478 96.701,67.623359 C96.701,69.0606995 96.3224205,70.311937 95.56525,71.377109 C94.8080795,72.442281 93.7621733,73.2186899 92.4275,73.706359 C94.0188413,74.1683613 95.2444124,74.9768532 96.10425,76.131859 Z M80.4155,72.012359 L86.8065,72.012359 C90.2458505,72.012359 91.9655,70.7290385 91.9655,68.162359 C91.9655,66.8790192 91.5420042,65.9165288 90.695,65.274859 C89.8479958,64.6331891 88.5518421,64.312359 86.8065,64.312359 L80.4155,64.312359 L80.4155,72.012359 Z M91.40725,83.061859 C92.2414208,82.4201891 92.6585,81.4063659 92.6585,80.020359 C92.6585,78.6086852 92.2414208,77.5691956 91.40725,76.901859 C90.5730792,76.2345223 89.2576756,75.900859 87.461,75.900859 L80.4155,75.900859 L80.4155,84.024359 L87.461,84.024359 C89.2576756,84.024359 90.5730792,83.7035288 91.40725,83.061859 Z M109.1295,87.874359 L109.1295,60.462359 L114.096,60.462359 L114.096,83.793359 L126.9165,83.793359 L126.9165,87.874359 L109.1295,87.874359 Z M137.6895,87.874359 L137.6895,60.462359 L156.0155,60.462359 L156.0155,64.389359 L142.5405,64.389359 L142.5405,71.973859 L155.207,71.973859 L155.207,75.900859 L142.5405,75.900859 L142.5405,83.947359 L156.0155,83.947359 L156.0155,87.874359 L137.6895,87.874359 Z" id="MABLE" fill="#000000"></path>
            </g>
        </g>
    </g>
</svg>