<?xml version="1.0" encoding="UTF-8"?>
<svg width="171px" height="90px" viewBox="0 0 171 90" version="1.1" xmlns="http://www.w3.org/2000/svg" xmlns:xlink="http://www.w3.org/1999/xlink">
    <!-- Generator: Sketch 50 (54983) - http://www.bohemiancoding.com/sketch -->
    <title>Group 23</title>
    <desc>Created with Sketch.</desc>
    <defs></defs>
    <g id="Mable-v3" stroke="none" stroke-width="1" fill="none" fill-rule="evenodd">
        <g id="Group-23" transform="translate(0.000000, 2.000000)">
            <g id="Logo">
                <g id="Group-22" transform="translate(54.000000, 0.000000)" stroke="#000000" stroke-linecap="round" stroke-width="2.5">
                    <ellipse id="Oval" cx="29.5" cy="16.7102564" rx="17.5" ry="16.7102564"></ellipse>
                    <polyline id="Path-2" points="0 46.0358974 14.0475696 39 30.6482899 46.0358974 44.332709 39 57.8562076 46.0358974"></polyline>
                </g>
                <path d="M22.715,60 L26.642,60 L26.642,87.412 L22.253,87.412 L22.253,70.395 L14.9765,87.412 L11.704,87.412 L4.389,70.5875 L4.389,87.412 L0,87.412 L0,60 L3.927,60 L13.3595,81.4445 L22.715,60 Z M75.012,87.412 L72.2785,80.9825 L58.8805,80.9825 L56.1085,87.412 L51.1035,87.412 L63.5005,60 L67.543,60 L79.9785,87.412 L75.012,87.412 Z M60.536,77.1325 L70.623,77.1325 L65.5795,65.39 L60.536,77.1325 Z M110.48275,75.6695 C111.342588,76.8245058 111.7725,78.2489915 111.7725,79.943 C111.7725,82.2786783 110.944758,84.1074101 109.28925,85.42925 C107.633742,86.7510899 105.330181,87.412 102.3785,87.412 L89.943,87.412 L89.943,60 L101.9935,60 C104.816847,60 107.036992,60.6352436 108.654,61.90575 C110.271008,63.1762564 111.0795,64.9279888 111.0795,67.161 C111.0795,68.5983405 110.70092,69.849578 109.94375,70.91475 C109.18658,71.979922 108.140673,72.7563309 106.806,73.244 C108.397341,73.7060023 109.622912,74.5144942 110.48275,75.6695 Z M94.794,71.55 L101.185,71.55 C104.624351,71.55 106.344,70.2666795 106.344,67.7 C106.344,66.4166603 105.920504,65.4541699 105.0735,64.8125 C104.226496,64.1708301 102.930342,63.85 101.185,63.85 L94.794,63.85 L94.794,71.55 Z M105.78575,82.5995 C106.619921,81.9578301 107.037,80.9440069 107.037,79.558 C107.037,78.1463263 106.619921,77.1068367 105.78575,76.4395 C104.951579,75.7721633 103.636176,75.4385 101.8395,75.4385 L94.794,75.4385 L94.794,83.562 L101.8395,83.562 C103.636176,83.562 104.951579,83.2411699 105.78575,82.5995 Z M123.508,87.412 L123.508,60 L128.4745,60 L128.4745,83.331 L141.295,83.331 L141.295,87.412 L123.508,87.412 Z M152.068,87.412 L152.068,60 L170.394,60 L170.394,63.927 L156.919,63.927 L156.919,71.5115 L169.5855,71.5115 L169.5855,75.4385 L156.919,75.4385 L156.919,83.485 L170.394,83.485 L170.394,87.412 L152.068,87.412 Z" id="MABLE" fill="#000000"></path>
                <path d="M37.5,73.5 L43.5,73.5" id="Line-8" stroke="#000000" stroke-width="3" stroke-linecap="square"></path>
            </g>
        </g>
    </g>
</svg>