<?xml version="1.0" encoding="UTF-8"?>
<svg width="154px" height="30px" viewBox="0 0 154 30" version="1.1" xmlns="http://www.w3.org/2000/svg" xmlns:xlink="http://www.w3.org/1999/xlink">
    <!-- Generator: Sketch 50 (54983) - http://www.bohemiancoding.com/sketch -->
    <title>Group</title>
    <desc>Created with Sketch.</desc>
    <defs></defs>
    <g id="Symbols" stroke="none" stroke-width="1" fill="none" fill-rule="evenodd">
        <g id="nav-v2" transform="translate(-36.000000, -20.000000)">
            <g id="Group" transform="translate(37.000000, 21.000000)">
                <g id="Logo" stroke="#000000" stroke-linecap="round" stroke-width="1.5">
                    <g>
                        <ellipse id="Oval" cx="17.6506276" cy="9.95504637" rx="10.4707113" ry="9.95504637"></ellipse>
                        <polyline id="Path-2" points="0 27.425641 8.40503117 23.2340426 18.3376797 27.425641 26.5254284 23.2340426 34.6168941 27.425641"></polyline>
                    </g>
                </g>
                <g id="Group-23" transform="translate(49.000000, 6.000000)">
                    <path d="M13.7593607,0 L16.1380976,0 L16.1380976,17 L13.4795093,17 L13.4795093,6.44662921 L9.07184965,17 L7.08956888,17 L2.65858833,6.56601124 L2.65858833,17 L0,17 L0,0 L2.37873693,0 L8.09236974,13.2991573 L13.7593607,0 Z M45.4376915,17 L43.781904,13.0126404 L35.6662133,13.0126404 L33.9871049,17 L30.9553814,17 L38.4647273,0 L40.9134271,0 L48.4460941,17 L45.4376915,17 Z M36.6690142,10.625 L42.7791031,10.625 L39.7240587,3.34269663 L36.6690142,10.625 Z M66.923707,9.71769663 C67.4445441,10.4339923 67.7049588,11.3174105 67.7049588,12.3679775 C67.7049588,13.8164866 67.2035634,14.9506045 66.2007575,15.7703652 C65.1979516,16.5901258 63.8025954,17 62.0146469,17 L54.48198,17 L54.48198,0 L61.7814374,0 C63.491649,0 64.836477,0.393956735 65.8159618,1.18188202 C66.7954466,1.96980731 67.2851817,3.05617285 67.2851817,4.44101124 C67.2851817,5.33240146 67.0558613,6.10837685 66.5972137,6.76896067 C66.138566,7.4295445 65.5050199,7.91104718 64.6965562,8.21348315 C65.6604936,8.50000143 66.4028698,9.00140091 66.923707,9.71769663 Z M57.4204197,7.16292135 L61.2916975,7.16292135 C63.3750461,7.16292135 64.4167048,6.36704916 64.4167048,4.7752809 C64.4167048,3.97939677 64.1601769,3.38249263 63.6471135,2.98455056 C63.13405,2.5866085 62.3489192,2.38764045 61.2916975,2.38764045 L57.4204197,2.38764045 L57.4204197,7.16292135 Z M64.078551,14.0154494 C64.5838408,13.6175074 64.8364819,12.9887683 64.8364819,12.1292135 C64.8364819,11.2537409 64.5838408,10.6090845 64.078551,10.1952247 C63.5732613,9.78136497 62.7764701,9.5744382 61.6881536,9.5744382 L57.4204197,9.5744382 L57.4204197,14.6123596 L61.6881536,14.6123596 C62.7764701,14.6123596 63.5732613,14.4133915 64.078551,14.0154494 Z M74.8136085,17 L74.8136085,0 L77.822011,0 L77.822011,14.4691011 L85.5878875,14.4691011 L85.5878875,17 L74.8136085,17 Z M92.1135134,17 L92.1135134,0 L103.214286,0 L103.214286,2.43539326 L95.0519531,2.43539326 L95.0519531,7.13904494 L102.724546,7.13904494 L102.724546,9.5744382 L95.0519531,9.5744382 L95.0519531,14.5646067 L103.214286,14.5646067 L103.214286,17 L92.1135134,17 Z" id="MABLE-Copy" fill="#000000"></path>
                    <path d="M22.2040816,8.5 L26.3673469,8.5" id="Line-8-Copy" stroke="#000000" stroke-width="1.5" stroke-linecap="square"></path>
                </g>
            </g>
        </g>
    </g>
</svg>