<?xml version="1.0" encoding="UTF-8"?>
<svg width="127px" height="127px" viewBox="0 0 127 127" version="1.1" xmlns="http://www.w3.org/2000/svg" xmlns:xlink="http://www.w3.org/1999/xlink">
    <!-- Generator: Sketch 49.3 (51167) - http://www.bohemiancoding.com/sketch -->
    <title>Group 17</title>
    <desc>Created with Sketch.</desc>
    <defs></defs>
    <g id="Mable-v2" stroke="none" stroke-width="1" fill="none" fill-rule="evenodd">
        <g id="Group-17">
            <circle id="Oval-6-Copy" fill="#000000" cx="63.5" cy="63.5" r="63.5"></circle>
            <path d="M102.769722,41.3545802 C102.700321,41.3465518 102.629849,41.3424484 102.558307,41.3424484 L98.7430162,41.3424484 C100.121944,39.871104 100.968855,37.895217 100.968855,35.7245067 C100.968855,31.1895117 97.2795218,27.5001784 92.7447051,27.5001784 C88.2097101,27.5001784 84.5203768,31.1895117 84.5203768,35.7245067 C84.5203768,37.8953954 85.3674659,39.871104 86.7462157,41.3424484 L82.9309252,41.3424484 C82.9141547,41.3424484 82.8975626,41.3426268 82.8811489,41.343162 C82.8633079,41.3428052 82.8456454,41.3424484 82.827626,41.3424484 C79.5457804,41.3424484 76.8760583,44.0123489 76.8760583,47.2941945 L76.8760583,64.6489938 C76.8760583,67.3342375 78.6639014,69.6098527 81.1113251,70.3482902 L81.1113251,98.5320204 C81.1113251,101.813866 83.7812256,104.483767 87.0630712,104.483767 C89.7270842,104.483767 91.987713,102.724469 92.7445267,100.306304 C93.5013405,102.724112 95.7621476,104.483767 98.4261606,104.483767 C101.708006,104.483767 104.377728,101.813866 104.377728,98.5320204 L104.377728,70.284598 C106.738088,69.4928159 108.406397,67.2810714 108.406397,64.6488154 L108.406397,47.2940161 C108.406754,44.0963798 105.944165,41.5183603 102.769722,41.3545802 L102.769722,41.3545802 L102.769722,41.3545802 Z M92.7447051,31.1392002 C95.2729484,31.1392002 97.3296549,33.1960851 97.3296549,35.7243283 C97.3296549,38.2525716 95.27277,40.3094565 92.7447051,40.3094565 C90.2166403,40.3094565 88.159577,38.2525716 88.159577,35.7243283 C88.159577,33.1960851 90.2164619,31.1392002 92.7447051,31.1392002 L92.7447051,31.1392002 L92.7447051,31.1392002 Z M104.767732,64.6488154 C104.767553,65.9115989 103.77738,66.9253226 102.513347,66.9565443 C101.526207,66.9811648 100.738885,67.7882901 100.738885,68.7756091 L100.738885,98.531842 C100.738885,99.8069358 99.7016112,100.844388 98.4265174,100.844388 C97.1514236,100.844388 96.1139715,99.8071142 96.1139715,98.531842 L96.1139715,74.7723145 C96.1139715,73.7673329 95.299353,72.9527144 94.2943714,72.9527144 L91.1952173,72.9527144 C90.1902357,72.9527144 89.3756172,73.7673329 89.3756172,74.7723145 L89.3756172,98.531842 C89.3756172,99.8069358 88.3383434,100.844388 87.0632496,100.844388 C85.7881558,100.844388 84.7507037,99.8071142 84.7507037,98.531842 L84.7507037,68.7756091 C84.7507037,68.2856962 84.5532042,67.8164788 84.2028076,67.4742891 C83.8524111,67.1320994 83.3773061,66.9476238 82.8889989,66.9565443 C82.8565284,66.9572579 82.8244146,66.9588636 82.7898031,66.9608261 C81.5321935,66.9406658 80.51508,65.9110637 80.51508,64.648637 L80.51508,47.2938377 C80.51508,46.0315894 81.5313014,45.0023441 82.7887327,44.9816485 C82.8220953,44.9836111 83.0085334,44.985752 83.067587,44.9812917 L102.419682,44.9812917 C102.450547,44.9836111 102.481769,44.9850383 102.513169,44.9861088 C103.777201,45.0173305 104.767375,46.0310541 104.767375,47.2938377 L104.767375,64.6488154 L104.767732,64.6488154 L104.767732,64.6488154 Z M55.7816142,62.3598195 L48.550314,45.0048418 C47.5706666,42.6537594 45.1657044,41.1804524 42.6392453,41.3590405 C42.6376396,41.3588621 42.6362123,41.3590405 42.6347851,41.3588621 C44.0229906,39.8857335 44.876324,37.9034239 44.876324,35.7243283 C44.876324,31.1893333 41.1869907,27.5 36.6519957,27.5 C32.1170006,27.5 28.4276673,31.1893333 28.4276673,35.7243283 C28.4276673,37.9036023 29.2813576,39.8862688 30.6697415,41.3593973 C30.63513,41.3626087 30.600697,41.3651064 30.5660855,41.3693882 C27.9663,41.1354932 25.5120968,42.6196831 24.5237073,45.0612193 L17.4990055,62.4158401 C16.902582,63.8895039 16.9156059,65.5071442 17.5359363,66.9709955 C18.1562666,68.4346683 19.3093282,69.5693537 20.7828136,70.1657772 C21.4973443,70.4551576 22.2480921,70.6018104 23.01454,70.6018104 C23.6734068,70.6018104 24.3121134,70.4951214 24.9117483,70.2947673 C24.7877535,70.7900326 24.6589418,71.2822648 24.5253129,71.7711072 L22.5155282,79.1256885 C21.6939517,82.131356 22.8156132,85.2892069 25.0184372,86.7362876 L25.0184372,98.531842 C25.0184372,101.813688 27.6883377,104.483588 30.9701834,104.483588 C33.6341963,104.483588 35.8951819,102.724469 36.6518173,100.306304 C37.408631,102.724112 39.6692598,104.483588 42.3334512,104.483588 C45.6152968,104.483588 48.2851973,101.813688 48.2851973,98.531842 L48.2851973,86.7362876 C50.4880213,85.2892069 51.6095044,82.1311776 50.7882848,79.1258669 L48.7783216,71.7711072 C48.6445143,71.2815512 48.5155241,70.7891405 48.3915294,70.2931617 C48.9920563,70.4942293 49.6312981,70.6014535 50.2896298,70.6014535 C51.0765948,70.6014535 51.8460756,70.4469508 52.57702,70.1425839 C55.6062375,68.880514 57.0438625,65.389037 55.7816142,62.3598195 L55.7816142,62.3598195 Z M36.6516388,31.1392002 C39.1798821,31.1392002 41.236767,33.1960851 41.236767,35.7243283 C41.236767,38.2525716 39.1798821,40.3094565 36.6516388,40.3094565 C34.1233956,40.3094565 32.0666891,38.2523931 32.0666891,35.7243283 C32.0666891,33.1962635 34.123574,31.1392002 36.6516388,31.1392002 L36.6516388,31.1392002 Z M51.1772178,66.7833085 C50.8921192,66.9021293 50.5934614,66.9624318 50.2894514,66.9624318 C49.3522654,66.9624318 48.5137401,66.4034743 48.1531741,65.5381875 L46.7865562,62.2577692 C46.4340187,61.4121074 45.5080726,60.9601957 44.6249448,61.2031897 C43.7416386,61.4456484 43.1764368,62.3073671 43.3056054,63.2142233 C43.7662591,66.4493256 44.4265532,69.6508869 45.2681116,72.730416 L47.2780748,80.0851756 C47.7503251,81.8130731 46.9355282,83.5609525 45.9457115,83.8562205 C45.1748033,84.0861906 44.6463539,84.795369 44.6463539,85.5999965 L44.6463539,98.531842 C44.6463539,99.8069358 43.6090802,100.844388 42.333808,100.844388 C41.0587142,100.844388 40.021262,99.8071142 40.021262,98.531842 L40.021262,85.7223855 C40.021262,84.7174039 39.2066435,83.9027854 38.2016619,83.9027854 L35.1025078,83.9027854 C34.0975262,83.9027854 33.2829077,84.7174039 33.2829077,85.7223855 L33.2829077,98.531842 C33.2829077,99.8069358 32.245634,100.844388 30.9703618,100.844388 C29.695268,100.844388 28.6578158,99.8071142 28.6578158,98.531842 L28.6578158,85.5999965 C28.6578158,84.795369 28.1293664,84.086369 27.3584583,83.8562205 C26.3688199,83.5609525 25.554023,81.8130731 26.026095,80.0851756 L28.0358797,72.730416 C28.8902836,69.6037867 29.5577141,66.3515571 30.0196167,63.063824 C30.1475364,62.1537563 29.5768039,61.2913241 28.6892159,61.0531472 C27.8019847,60.8147919 26.8760386,61.2759808 26.5311727,62.1278869 L25.1595593,65.5164215 C24.8039888,66.3949107 23.9620737,66.9624318 23.01454,66.9624318 C22.7185584,66.9624318 22.427037,66.9053407 22.1483611,66.792229 C21.5756661,66.5606532 21.1276795,66.1196246 20.886648,65.5508546 C20.645795,64.982263 20.6404427,64.3535474 20.8721968,63.7808524 L27.8965418,46.4262315 C28.2952874,45.4414102 29.3678862,45.0078748 30.3625201,45.0078748 L42.8003492,44.9977054 C43.8567128,44.9977054 44.7985374,45.4622842 45.1910386,46.4044656 L52.4221604,63.7592648 C52.9124301,64.9364117 52.3538295,66.2930388 51.1772178,66.7833085 L51.1772178,66.7833085 Z M66.8158946,27.9131968 C63.534049,27.9131968 60.8641485,30.5830973 60.8641485,33.8647645 L60.8641485,99.7712539 C60.8641485,103.053099 63.534049,105.723 66.8158946,105.723 C70.0977402,105.723 72.7676407,103.053099 72.7676407,99.7712539 L72.7676407,33.8649429 C72.7674623,30.5830973 70.0975618,27.9131968 66.8158946,27.9131968 L66.8158946,27.9131968 Z M69.1282622,99.7714323 C69.1282622,101.046526 68.0909884,102.083978 66.8157162,102.083978 C65.5408008,102.083978 64.5033486,101.046705 64.5033486,99.7714323 L64.5033486,33.8649429 C64.5033486,32.5900275 65.5406224,31.5525753 66.8157162,31.5525753 C68.09081,31.5525753 69.1282622,32.5898491 69.1282622,33.8649429 L69.1282622,99.7714323 L69.1282622,99.7714323 Z" id="toilets" fill="#FFFFFF"></path>
        </g>
    </g>
</svg>