<?xml version="1.0" encoding="UTF-8"?>
<svg width="176px" height="176px" viewBox="0 0 176 176" version="1.1" xmlns="http://www.w3.org/2000/svg" xmlns:xlink="http://www.w3.org/1999/xlink">
    <!-- Generator: Sketch 49.3 (51167) - http://www.bohemiancoding.com/sketch -->
    <title>Group 16</title>
    <desc>Created with Sketch.</desc>
    <defs></defs>
    <g id="Mable-v2" stroke="none" stroke-width="1" fill="none" fill-rule="evenodd">
        <g id="Group-16">
            <circle id="Oval-5" fill="#000000" cx="88" cy="88" r="88"></circle>
            <path d="M127.032069,44.1673162 C116.606048,33.7417645 102.744297,28 87.9998828,28 C73.2554686,28 59.3939519,33.7417645 48.9679314,44.1673162 C38.5423797,54.5933367 32.8006152,68.4550877 32.8006152,83.199502 C32.8006152,97.9441506 38.5421453,111.806136 48.9679314,122.231453 C50.2436447,123.507635 51.9402989,124.210297 53.744532,124.210297 C55.5487651,124.210297 57.2451848,123.507635 58.5206637,122.231688 C59.7966114,120.956209 60.4992732,119.259555 60.4992732,117.455322 C60.4992732,115.651323 59.7966114,113.954669 58.5208981,112.67919 C50.6467729,104.80483 46.3100978,94.33545 46.3100978,83.1997363 C46.3100978,60.2115846 65.0126686,41.5099513 88.0003516,41.5099513 C110.988035,41.5099513 129.690137,60.2118189 129.690137,83.1997363 C129.690137,94.33545 125.353696,104.804596 117.479336,112.678955 C116.203389,113.954669 115.500727,115.651088 115.500727,117.455322 C115.500727,119.259555 116.203389,120.955974 117.479102,122.231453 C118.754581,123.507401 120.451235,124.210063 122.255468,124.210063 C124.059701,124.210063 125.756355,123.507401 127.031834,122.231688 C137.45762,111.805902 143.199385,97.9441506 143.199385,83.199502 C143.199619,68.4550877 137.457855,54.5933367 127.032069,44.1673162 L127.032069,44.1673162 L127.032069,44.1673162 Z M123.650948,118.85127 C123.278289,119.223929 122.782816,119.429244 122.255468,119.429244 C121.72812,119.429244 121.232647,119.223929 120.859754,118.851036 C120.487095,118.478142 120.28178,117.982669 120.28178,117.455322 C120.28178,116.928208 120.487095,116.432501 120.859988,116.059607 C129.636933,107.282662 134.470722,95.6128039 134.470722,83.1999707 C134.470722,57.5760167 113.624071,36.729132 87.9998828,36.729132 C62.3756944,36.729132 41.5292785,57.5757823 41.5292785,83.1997363 C41.5292785,95.6125695 46.363067,107.282428 55.1402462,116.059607 C55.5129054,116.432267 55.7182196,116.927974 55.7182196,117.455087 C55.7182196,117.982201 55.5131398,118.477908 55.1400118,118.850801 C54.7673526,119.223695 54.2716455,119.429009 53.744532,119.429009 C53.2174184,119.429009 52.7217113,119.223929 52.3488177,118.850801 C42.8258513,109.328304 37.5814345,96.667031 37.5814345,83.199502 C37.5814345,69.7322072 42.8258513,57.0709346 52.3485834,47.5479681 C61.8717842,38.0250017 74.5330568,32.7805849 88.0001172,32.7805849 C101.467178,32.7805849 114.12845,38.0250017 123.651417,47.5479681 C133.174383,57.0709346 138.4188,69.7322072 138.4188,83.199502 C138.418565,96.6672654 133.174149,109.328538 123.650948,118.85127 L123.650948,118.85127 Z M88.0001172,44.3663022 C66.5874467,44.3663022 49.1669174,61.7868315 49.1669174,83.199502 C49.1669174,93.5723189 53.2064027,103.324272 60.5409923,110.658861 C63.1746852,113.292554 67.4600318,113.29232 70.0937246,110.658861 C72.7271831,108.025403 72.7271831,103.739822 70.0937246,101.106129 C65.3105616,96.3229658 62.6766343,89.9636183 62.6766343,83.1997363 C62.6766343,69.2360314 74.0366466,57.8762535 88.0001172,57.8762535 C101.963588,57.8762535 113.3236,69.2365002 113.3236,83.1997363 C113.3236,89.9638527 110.689438,96.3232002 105.90651,101.106129 C103.273051,103.739822 103.273051,108.025168 105.90651,110.658861 C107.182223,111.934574 108.878643,112.637236 110.682876,112.637236 C112.487109,112.637236 114.183529,111.934809 115.459242,110.658861 C122.793832,103.324272 126.833317,93.5723189 126.833317,83.199502 C126.833317,61.7868315 109.412788,44.3663022 88.0001172,44.3663022 L88.0001172,44.3663022 Z M112.07859,107.278209 C111.705931,107.651103 111.210458,107.856417 110.68311,107.856417 C110.155762,107.856417 109.66029,107.651103 109.287396,107.278209 C108.517702,106.50875 108.517702,105.256474 109.287396,104.486546 C114.973144,98.8005637 118.104654,91.2405035 118.104654,83.199502 C118.104654,66.5999948 104.599859,53.0949654 88.0001172,53.0949654 C71.4003757,53.0949654 57.8955806,66.5997604 57.895815,83.199502 C57.895815,91.2405035 61.02709,98.8005637 66.7130727,104.486546 C67.482532,105.25624 67.482532,106.50875 66.7130727,107.278209 C65.9431447,108.047669 64.6908691,108.047903 63.9214099,107.278209 C57.4896399,100.846674 53.9477367,92.2951994 53.9477367,83.1997363 C53.9477367,64.4231025 69.2234833,49.1473559 88.0001172,49.1473559 C106.776751,49.1473559 122.052498,64.4233368 122.052498,83.1997363 C122.052263,92.2954337 118.51036,100.846908 112.07859,107.278209 L112.07859,107.278209 Z M95.0227512,104.614985 C94.6397794,101.443163 95.9152583,98.355482 98.4348096,96.3557786 C102.475701,93.1483312 104.79322,88.3529805 104.79322,83.1997363 C104.79322,78.5670432 102.947502,74.2531026 99.596147,71.0531553 C96.2464328,67.8543798 91.8450697,66.2109292 87.2074546,66.4251497 C78.6517615,66.8203091 71.63194,73.8307555 71.226468,82.3855111 C70.9717004,87.7567257 73.3243754,92.9657516 77.5197213,96.3196845 C80.0659915,98.355482 81.3585799,101.456757 80.9774832,104.615454 L76.064944,145.324137 C75.9829121,146.003127 76.1959607,146.68446 76.6494799,147.19634 C77.1032336,147.708219 77.7543325,148.000955 78.4382442,148.000955 L97.5619902,148.000955 C98.2459019,148.000955 98.8970008,147.708219 99.3509888,147.196105 C99.8047424,146.684226 100.017557,146.002893 99.9355247,145.323903 L95.0227512,104.614985 L95.0227512,104.614985 Z M81.1342813,143.220136 L85.7236147,105.188036 C86.3044006,100.373701 84.3536819,95.6622574 80.5045106,92.5853579 C77.4576114,90.1494792 75.8162702,86.514294 76.0014279,82.6119192 C76.2913521,76.4956205 81.3100639,71.4837056 87.4270658,71.2010471 C90.7528735,71.0477646 93.8979766,72.2231646 96.293777,74.5109172 C98.6914523,76.8003104 100.011697,79.8861162 100.011697,83.1997363 C100.011697,86.8855469 98.3534809,90.3161211 95.4619735,92.6111394 C91.6310836,95.6519448 89.6920838,100.353545 90.2756822,105.188036 L94.86525,143.220136 L81.1342813,143.220136 L81.1342813,143.220136 L81.1342813,143.220136 Z" id="signals" fill="#FFFFFF"></path>
        </g>
    </g>
</svg>