<?xml version="1.0" encoding="UTF-8"?>
<svg width="108px" height="108px" viewBox="0 0 108 108" version="1.1" xmlns="http://www.w3.org/2000/svg" xmlns:xlink="http://www.w3.org/1999/xlink">
    <!-- Generator: Sketch 49.3 (51167) - http://www.bohemiancoding.com/sketch -->
    <title>Group 15</title>
    <desc>Created with Sketch.</desc>
    <defs>
        <circle id="path-1" cx="54" cy="54" r="54"></circle>
        <circle id="path-3" cx="54" cy="54" r="54"></circle>
    </defs>
    <g id="Mable-v2" stroke="none" stroke-width="1" fill="none" fill-rule="evenodd">
        <g id="Group-15">
            <mask id="mask-2" fill="white">
                <use xlink:href="#path-1"></use>
            </mask>
            <g id="Oval-12-Copy">
                <use fill="#FFFFFF" fill-rule="evenodd" xlink:href="#path-1"></use>
                <circle stroke="#000000" stroke-width="4" cx="54" cy="54" r="52"></circle>
            </g>
            <mask id="mask-4" fill="white">
                <use xlink:href="#path-3"></use>
            </mask>
            <g id="Oval-12"></g>
            <path d="M58.021605,119.126154 C57.423402,107.493111 56.447406,99.6075807 55.0936169,95.4695625 C53.7398278,91.3315444 53.7398278,80.5707507 55.0936169,63.1871814 C55.4158392,61.0707241 56.3918353,60.0663663 58.021605,60.1741081 C60.6057166,60.34494 60.7875343,62.5459426 60.7875343,65.3079493 C60.7875343,70.3091534 60.7875343,75.1453661 60.7875343,79.8165874 C61.0888491,77.2935199 62.2010475,76.0319862 64.1241296,76.0319862 C67.0087526,76.0319862 66.6874793,79.8165874 66.8883404,79.8165874 C67.0892014,79.8165874 67.6490465,76.8936066 70.1943022,76.8936066 C72.7395578,76.8936066 73.6833582,79.8090457 73.8139625,79.8165874 C73.9445667,79.824129 75.0996731,77.8724439 77.093125,78.5415636 C79.0865769,79.2106833 78.8461405,81.3522013 79.2067127,84.0385398 C79.9236235,89.3796755 78.9586809,94.512065 76.3118847,99.4357084 L76.3118847,105.764587 L58.021605,119.126154 Z" id="Path-17" fill="#000000" mask="url(#mask-4)" transform="translate(66.757091, 89.646217) rotate(30.000000) translate(-66.757091, -89.646217) "></path>
            <path d="M24.0805861,73.2717885 L28.0595868,98.3695837 L-10.0067052,71.963091 L-8.83646096,54.149402 L-1.4200775,53.1936136 C-3.87270934,48.2071485 -5.25023497,42.5965257 -5.25023497,36.6641645 C-5.25023497,15.9534864 11.5390869,-0.835835504 32.249765,-0.835835504 C52.455846,-0.835835504 68.9293237,15.1453391 69.7200522,35.1575425 L74.4662372,40.8775739 C74.9652633,41.4789928 75.3163661,42.1890124 75.491372,42.9506584 C76.1097589,45.6419515 74.4293365,48.3249773 71.7380433,48.9433643 L67.3254608,49.9572574 C66.9651333,50.9075194 66.5672984,51.8393272 66.1337635,52.7508735 L66.6593128,55.0722511 C66.7812614,55.6109041 66.4434558,56.1464274 65.9048028,56.268376 C65.6614991,56.3234588 65.4063928,56.2856147 65.1895579,56.1622718 L64.5182823,55.7804278 C64.4914605,55.8256059 64.4645465,55.8707229 64.4375406,55.9157784 L65.1945979,57.1373477 C65.485531,57.6067903 65.3408205,58.2231966 64.8713779,58.5141297 C64.8019478,58.5571584 64.7275072,58.5915184 64.6497201,58.6164416 L62.0316238,59.4552855 C55.1778253,68.3978575 44.3871918,74.1641645 32.249765,74.1641645 C29.4440753,74.1641645 26.7103516,73.8560417 24.0805861,73.2717885 Z" id="Combined-Shape" fill="#000000" mask="url(#mask-4)" transform="translate(32.806377, 48.766874) rotate(11.000000) translate(-32.806377, -48.766874) "></path>
        </g>
    </g>
</svg>