<?xml version="1.0" encoding="UTF-8"?>
<svg width="119px" height="228px" viewBox="0 0 119 228" version="1.1" xmlns="http://www.w3.org/2000/svg" xmlns:xlink="http://www.w3.org/1999/xlink">
    <!-- Generator: Sketch 49.3 (51167) - http://www.bohemiancoding.com/sketch -->
    <title>pedestrian marker</title>
    <desc>Created with Sketch.</desc>
    <defs>
        <filter x="-6.3%" y="-2.3%" width="112.6%" height="106.4%" filterUnits="objectBoundingBox" id="filter-1">
            <feOffset dx="0" dy="2" in="SourceAlpha" result="shadowOffsetOuter1"></feOffset>
            <feGaussianBlur stdDeviation="2" in="shadowOffsetOuter1" result="shadowBlurOuter1"></feGaussianBlur>
            <feColorMatrix values="0 0 0 0 0   0 0 0 0 0   0 0 0 0 0  0 0 0 0.5 0" type="matrix" in="shadowBlurOuter1" result="shadowMatrixOuter1"></feColorMatrix>
            <feMerge>
                <feMergeNode in="shadowMatrixOuter1"></feMergeNode>
                <feMergeNode in="SourceGraphic"></feMergeNode>
            </feMerge>
        </filter>
    </defs>
    <g id="Mable-v2" stroke="none" stroke-width="1" fill="none" fill-rule="evenodd">
        <g id="pedestrian-marker" transform="translate(4.000000, 2.000000)">
            <g id="Group-13" filter="url(#filter-1)">
                <path d="M54.2925497,0 L56.9902856,1.42108547e-14 C86.813662,8.73238933e-15 110.990286,24.1766235 110.990286,54 C110.990286,55.8963265 110.890395,57.7913366 110.69103,59.6771541 L93.7802369,219.637962 L15.5659995,219.637962 L0.527731771,59.0343174 C-2.25264496,29.3408284 19.5647433,3.01555879 49.2582323,0.23518206 C50.9317633,0.0784794688 52.6116982,7.41419477e-15 54.2925497,7.10542736e-15 Z" id="Rectangle-12" fill="#000000"></path>
                <path d="M47.2006527,159.083371 C45.4494522,155.851736 45.6163134,152.382839 47.7012363,148.67668 L51.7686342,137.677607 L46.9423386,139.458265 L43.5060345,151.275595 C42.8282776,153.606377 40.3691807,154.952229 38.0134878,154.281639 C35.6577948,153.611049 34.2975589,151.177957 34.9753157,148.847175 L39.6486951,132.775586 L56.4175892,126.588716 L70.0728978,131.304041 L74.223276,145.608906 L83.4407987,149.656833 C85.6812771,150.640751 86.6913953,153.235435 85.6969608,155.452221 C84.7025263,157.669007 82.0801113,158.668444 79.8396328,157.684525 L66.8345164,151.973256 L64.8972142,145.29607 L60.1758376,156.621732 L75.281136,192.059362 C76.31245,194.25959 75.3457949,196.870432 73.1220514,197.89084 C70.898308,198.911248 68.2595626,197.954815 67.2282486,195.754587 L53.6328711,166.749909 L39.4356272,195.817739 C38.3690624,198.001453 35.7152709,198.916225 33.5082178,197.860939 C31.3011648,196.805653 30.3766163,194.179924 31.443181,191.99621 L47.2006527,159.083371 Z M66.6783088,126.58883 C63.1648455,126.58883 60.3166207,123.770724 60.3166207,120.294415 C60.3166207,116.818106 63.1648455,114 66.6783088,114 C70.1917721,114 73.0399968,116.818106 73.0399968,120.294415 C73.0399968,123.770724 70.1917721,126.58883 66.6783088,126.58883 Z" id="Combined-Shape-Copy-2" fill="#FFFFFF" fill-rule="nonzero"></path>
                <circle id="Oval-7" fill="#FFFFFF" cx="54.5" cy="54.5" r="49.5"></circle>
                <path d="M51.612,39.7232941 L59.1978824,39.7232941 L59.1978824,87.1350589 L51.612,87.1350589 L51.612,39.7232941 Z M50,25.3101177 C50,23.8561496 50.4899167,22.6076523 51.4697647,21.5645882 C52.4496127,20.5215242 53.6981101,20 55.2152941,20 C56.7324782,20 58.0283868,20.5215242 59.1030588,21.5645882 C60.1777309,22.6076523 60.7150588,23.8561496 60.7150588,25.3101177 C60.7150588,26.7640857 60.1777309,27.9651717 59.1030588,28.9134118 C58.0283868,29.8616518 56.7324782,30.3357647 55.2152941,30.3357647 C53.6981101,30.3357647 52.4496127,29.8616518 51.4697647,28.9134118 C50.4899167,27.9651717 50,26.7640857 50,25.3101177 Z" id="i" fill="#000000"></path>
            </g>
        </g>
    </g>
</svg>