<?xml version="1.0" encoding="UTF-8"?>
<svg width="83px" height="113px" viewBox="0 0 83 113" version="1.1" xmlns="http://www.w3.org/2000/svg" xmlns:xlink="http://www.w3.org/1999/xlink">
    <!-- Generator: Sketch 49.3 (51167) - http://www.bohemiancoding.com/sketch -->
    <title>marker-parking</title>
    <desc>Created with Sketch.</desc>
    <defs>
        <rect id="path-1" x="6" y="4" width="52" height="51"></rect>
    </defs>
    <g id="Mable-v2" stroke="none" stroke-width="1" fill="none" fill-rule="evenodd">
        <g id="marker-parking">
            <path d="M41.4539793,112.190462 C69.0899656,80.2957408 82.9079587,56.7169131 82.9079587,41.4539793 C82.9079587,18.5595787 64.3483799,0 41.4539793,0 C18.5595787,0 0,18.5595787 0,41.4539793 C0,56.7169131 13.8179931,80.2957408 41.4539793,112.190462 Z" id="Oval-5" fill="#000000"></path>
            <g id="Group-12" transform="translate(13.000000, 16.000000)">
                <g id="Rectangle-4">
                    <use fill="#FFFFFF" fill-rule="evenodd" xlink:href="#path-1"></use>
                    <rect stroke="#979797" stroke-width="1" x="6.5" y="4.5" width="51" height="50"></rect>
                </g>
                <g id="Group-8" fill="#000000">
                    <path d="M23.4761905,6.9047619 L16.5714286,6.9047619 L16.5714286,50.3467713 C16.5714286,50.7649451 16.9081439,51.0952381 17.3235032,51.0952381 L22.7241158,51.0952381 C23.1431595,51.0952381 23.4761905,50.7601381 23.4761905,50.3467713 L23.4761905,35.9047619 L23.4761905,6.9047619 Z M0,1.49200115 C0,0.667991666 0.671424996,0 1.49200115,0 L56.5079989,0 C57.3320083,0 58,0.671424996 58,1.49200115 L58,56.5079989 C58,57.3320083 57.328575,58 56.5079989,58 L1.49200115,58 C0.667991666,58 0,57.328575 0,56.5079989 L0,1.49200115 Z M23.4761905,6.9047619 L23.4761905,35.9047619 C23.4761905,35.9047619 23.4761905,35.9047619 30.8412698,35.9047619 C38.2063492,35.9047619 45.5714286,32.2797619 45.5714286,21.4047619 C45.5714286,10.5297619 38.2063492,6.9047619 30.8412698,6.9047619 C23.4761905,6.9047619 23.4761905,6.9047619 23.4761905,6.9047619 Z" id="Combined-Shape"></path>
                    <path d="M23.4761905,15.1904762 C23.4761905,15.1904762 27.2738095,15.1904762 31.0714286,15.1904762 C34.8690476,15.1904762 38.6666667,16.9166667 38.6666667,22.0952381 C38.6666667,27.2738095 34.8690476,29 31.0714286,29 C27.2738095,29 23.4761905,29 23.4761905,29 L23.4761905,15.1904762 Z" id="Path-40"></path>
                </g>
            </g>
        </g>
    </g>
</svg>