<?xml version="1.0" encoding="UTF-8"?>
<svg width="678px" height="170px" viewBox="0 0 678 170" version="1.1" xmlns="http://www.w3.org/2000/svg" xmlns:xlink="http://www.w3.org/1999/xlink">
    <!-- Generator: Sketch 49.3 (51167) - http://www.bohemiancoding.com/sketch -->
    <title>Graphic</title>
    <desc>Created with Sketch.</desc>
    <defs></defs>
    <g id="Mable-v2" stroke="none" stroke-width="1" fill="none" fill-rule="evenodd">
        <g id="Home" transform="translate(-100.000000, -993.000000)">
            <g id="Info-section" transform="translate(0.000000, 623.000000)">
                <g id="Graphic" transform="translate(88.000000, 372.000000)">
                    <g id="Handicaped" transform="translate(187.000000, 48.000000)" stroke="#FFFFFF" stroke-width="6">
                        <g id="Icon" transform="translate(12.000000, 0.000000)">
                            <path d="M81,87 L93,87" id="Line-90" stroke-linecap="round" stroke-linejoin="round"></path>
                            <circle id="Line-89" cx="36" cy="12" r="9"></circle>
                            <path d="M27,57.5853684 L45,48.411143 L45,41.9758391 C45,37.0319539 40.9644392,33 36,33 C31.0006929,33 27,37.0096445 27,41.9948628 L27,57.5853684 Z" id="Line-88"></path>
                            <circle id="Line-87" cx="48" cy="84" r="33"></circle>
                            <polyline id="Line-86" stroke-linecap="round" stroke-linejoin="round" transform="translate(9.000000, 57.000000) scale(-1, 1) translate(-9.000000, -57.000000) " points="15 30 3 30 3 84"></polyline>
                        </g>
                    </g>
                    <g id="Handicaped-Copy" transform="translate(0.000000, 48.000000)" stroke="#FFFFFF" stroke-width="6">
                        <g id="Icon" transform="translate(12.000000, 0.000000)">
                            <path d="M81,87 L93,87" id="Line-90" stroke-linecap="round" stroke-linejoin="round"></path>
                            <circle id="Line-89" cx="36" cy="12" r="9"></circle>
                            <path d="M27,57.5853684 L45,48.411143 L45,41.9758391 C45,37.0319539 40.9644392,33 36,33 C31.0006929,33 27,37.0096445 27,41.9948628 L27,57.5853684 Z" id="Line-88"></path>
                            <circle id="Line-87" cx="48" cy="84" r="33"></circle>
                            <polyline id="Line-86" stroke-linecap="round" stroke-linejoin="round" transform="translate(9.000000, 57.000000) scale(-1, 1) translate(-9.000000, -57.000000) " points="15 30 3 30 3 84"></polyline>
                        </g>
                    </g>
                    <g id="Group-3" transform="translate(343.000000, 34.000000)" stroke="#FFE200">
                        <g id="Handicaped-Copy-2" transform="translate(95.000000, 74.000000) rotate(-15.000000) translate(-95.000000, -74.000000) translate(35.000000, 14.000000)" stroke-width="6">
                            <g id="Icon" transform="translate(15.000000, 0.000000)">
                                <path d="M78,87 L90,87" id="Line-90" stroke-linecap="round" stroke-linejoin="round"></path>
                                <circle id="Line-89" cx="33" cy="12" r="9"></circle>
                                <path d="M24,57.5853684 L42,48.411143 L42,41.9758391 C42,37.0319539 37.9644392,33 33,33 C28.0006929,33 24,37.0096445 24,41.9948628 L24,57.5853684 Z" id="Line-88"></path>
                                <circle id="Line-87" cx="45" cy="84" r="33"></circle>
                                <polyline id="Line-86" stroke-linecap="round" stroke-linejoin="round" transform="translate(6.000000, 57.000000) scale(-1, 1) translate(-6.000000, -57.000000) " points="12 30 1.39736489e-09 30 1.36424205e-12 84"></polyline>
                            </g>
                        </g>
                        <g id="Group" transform="translate(0.000000, 37.000000)" stroke-linecap="round" stroke-width="3">
                            <path d="M52.5,1.5 L10.5,1.5" id="Line"></path>
                            <path d="M42.5,35.5 L0.5,35.5" id="Line-Copy"></path>
                            <path d="M64.5,63.5 L22.5,63.5" id="Line-Copy-2"></path>
                            <path d="M43.5,81.5 L1.5,81.5" id="Line-Copy-3"></path>
                        </g>
                    </g>
                    <path d="M520.694752,103.524014 C518.025386,98.5404417 518.279734,93.1909826 521.457794,87.4756364 L527.657753,70.513735 L520.301002,73.2597248 L515.063023,91.4834779 C514.029914,95.077826 510.281498,97.1532924 506.690701,96.1191619 C503.099904,95.0850313 501.026489,91.332908 502.059597,87.7385599 L509.183258,62.9542251 L534.744183,53.4133235 L555.559051,60.6849258 L561.885498,82.7447582 L575.935822,88.9871508 C579.350997,90.5044724 580.890726,94.5057887 579.374904,97.924341 C577.859081,101.342893 573.861719,102.884145 570.446544,101.366824 L550.622767,92.5593549 L547.669726,82.2623269 L540.472903,99.7278676 L563.498,154.376982 C565.070038,157.77 563.59656,161.796233 560.206894,163.369826 C556.817229,164.943419 552.794974,163.468484 551.222936,160.075466 L530.49942,115.346743 L508.858477,160.172854 C507.232706,163.540405 503.187516,164.951094 499.823291,163.323715 C496.459067,161.696336 495.049772,157.647145 496.675543,154.279594 L520.694752,103.524014 Z M550.384659,53.4134992 C545.029066,53.4134992 540.6875,49.0676394 540.6875,43.7067496 C540.6875,38.3458598 545.029066,34 550.384659,34 C555.740252,34 560.081818,38.3458598 560.081818,43.7067496 C560.081818,49.0676394 555.740252,53.4134992 550.384659,53.4134992 Z" id="Combined-Shape" stroke="#FFFFFF" stroke-width="3" stroke-linecap="round" stroke-linejoin="round" fill-rule="nonzero"></path>
                    <path d="M144.504792,68.9892135 C141.85596,64.0439768 142.108351,58.7356674 145.261965,53.0642854 L151.414232,36.2328601 L144.114071,38.9577269 L138.916384,57.0412973 C137.891223,60.6079966 134.17164,62.6674979 130.608465,61.6413222 C127.04529,60.6151465 124.987823,56.8918857 126.012985,53.3251864 L133.081848,28.7315003 L158.446151,19.2639903 L179.100905,26.4796572 L185.378686,48.3697985 L199.320932,54.5641727 C202.709836,56.0698226 204.237721,60.0403595 202.733558,63.4326153 C201.229396,66.824871 197.262782,68.3542672 193.873878,66.8486173 L174.202592,58.1088984 L171.272267,47.8910782 L164.130804,65.2222686 L186.978785,119.451005 C188.53873,122.817923 187.076586,126.813185 183.712995,128.374674 C180.349404,129.936162 176.358089,128.472572 174.798144,125.105654 L154.23404,80.7209986 L132.759565,125.202294 C131.1463,128.543941 127.132227,129.943778 123.793881,128.328917 C120.455536,126.714057 119.057082,122.696013 120.670347,119.354366 L144.504792,68.9892135 Z M173.966316,19.2641646 C168.651919,19.2641646 164.34375,14.9517345 164.34375,9.6320823 C164.34375,4.31243014 168.651919,0 173.966316,0 C179.280712,0 183.588881,4.31243014 183.588881,9.6320823 C183.588881,14.9517345 179.280712,19.2641646 173.966316,19.2641646 Z" id="Combined-Shape-Copy" stroke="#FFFFFF" stroke-width="3" opacity="0.477468297" stroke-linecap="round" stroke-linejoin="round" fill-rule="nonzero"></path>
                    <path d="M629.504792,81.9892135 C626.85596,77.0439768 627.108351,71.7356674 630.261965,66.0642854 L636.414232,49.2328601 L629.114071,51.9577269 L623.916384,70.0412973 C622.891223,73.6079966 619.17164,75.6674979 615.608465,74.6413222 C612.04529,73.6151465 609.987823,69.8918857 611.012985,66.3251864 L618.081848,41.7315003 L643.446151,32.2639903 L664.100905,39.4796572 L670.378686,61.3697985 L684.320932,67.5641727 C687.709836,69.0698226 689.237721,73.0403595 687.733558,76.4326153 C686.229396,79.824871 682.262782,81.3542672 678.873878,79.8486173 L659.202592,71.1088984 L656.272267,60.8910782 L649.130804,78.2222686 L671.978785,132.451005 C673.53873,135.817923 672.076586,139.813185 668.712995,141.374674 C665.349404,142.936162 661.358089,141.472572 659.798144,138.105654 L639.23404,93.7209986 L617.759565,138.202294 C616.1463,141.543941 612.132227,142.943778 608.793881,141.328917 C605.455536,139.714057 604.057082,135.696013 605.670347,132.354366 L629.504792,81.9892135 Z M658.966316,32.2641646 C653.651919,32.2641646 649.34375,27.9517345 649.34375,22.6320823 C649.34375,17.3124301 653.651919,13 658.966316,13 C664.280712,13 668.588881,17.3124301 668.588881,22.6320823 C668.588881,27.9517345 664.280712,32.2641646 658.966316,32.2641646 Z" id="Combined-Shape-Copy-2" stroke="#FFFFFF" stroke-width="3" opacity="0.828804348" stroke-linecap="round" stroke-linejoin="round" fill-rule="nonzero"></path>
                </g>
            </g>
        </g>
    </g>
</svg>